<svg id="visual" viewBox="0 0 1920 1000" width="1920" height="1000" xmlns="http://www.w3.org/2000/svg" xmlns:xlink="http://www.w3.org/1999/xlink" version="1.1"><path d="M0 918L64 907.2C128 896.3 256 874.7 384 867.5C512 860.3 640 867.7 768 882.3C896 897 1024 919 1152 923.5C1280 928 1408 915 1536 903.7C1664 892.3 1792 882.7 1856 877.8L1920 873L1920 1001L1856 1001C1792 1001 1664 1001 1536 1001C1408 1001 1280 1001 1152 1001C1024 1001 896 1001 768 1001C640 1001 512 1001 384 1001C256 1001 128 1001 64 1001L0 1001Z" fill="#000000" stroke-linecap="round" stroke-linejoin="miter"></path></svg>